<?xml version="1.0" encoding="utf-8" ?>
<!-- Generator: Adobe Illustrator 22.0.1, SVG Export Plug-In . SVG Version: 6.00 Build 0)  -->
<svg
  version="1.1"
  id="snt"
  xmlns="http://www.w3.org/2000/svg"
  xmlns:xlink="http://www.w3.org/1999/xlink"
  x="0px"
  y="0px"
  viewBox="0 0 512 512"
  enable-background="new 0 0 512 512"
  xml:space="preserve"
>
  <path
    id="_x31_"
    fill="#BDBDBD"
    d="M256,16C123.5,16,16,123.5,16,256s107.5,240,240,240s240-107.5,240-240S388.5,16,256,16z
	 M200.2,378.7c-38.1,0-64.2-18.7-64.2-57.3s31.3-57.3,77-57.3c33.7,0,49.7,6.5,83.5,6.5c8.4,0,16.7-0.7,25-2.2
	C314.7,331.3,262.4,378.7,200.2,378.7z M299,247.8c-33.8,0-49.7-6.5-83.5-6.5l0,0c-8.4,0-16.7,0.7-25,2.2
	c6.8-62.7,59-110.2,121.3-110.2c38.1,0,64.2,18.7,64.2,57.3S344.7,247.8,299,247.8z"
  />
</svg>
