<?xml version="1.0" encoding="utf-8" ?>
<!-- Generator: Adobe Illustrator 22.0.1, SVG Export Plug-In . SVG Version: 6.00 Build 0)  -->
<svg
  version="1.1"
  id="qnt"
  xmlns="http://www.w3.org/2000/svg"
  xmlns:xlink="http://www.w3.org/1999/xlink"
  x="0px"
  y="0px"
  viewBox="0 0 512 512"
  enable-background="new 0 0 512 512"
  xml:space="preserve"
>
  <path
    id="_x36_"
    fill="#BDBDBD"
    d="M134.8,44.5l121.9,142.9l81.8-48.1c0,0-98.7-132-125.1-122.7C188.8,25.9,134.8,44.5,134.8,44.5z"
  />
  <path
    id="_x35_"
    fill="#BDBDBD"
    d="M341.7,139.2c0,0,18.6-32.6,27.8-76.1c0,0,92.6,37.2,57.1,130.5L341.7,139.2z"
  />
  <path
    id="_x34_"
    fill="#BDBDBD"
    d="M426.5,193.6l7.8,97.9l35.5-4.6c0,0,9.2-3.1,7.8-20.1c-1.6-18.7-4.6-57.5-4.6-57.5
	s1.6-9.3-20-12.4C426.5,192,426.5,193.6,426.5,193.6z"
  />
  <path
    id="_x33_"
    fill="#BDBDBD"
    d="M434.2,291.5l-71,57.5l32.4,63.7c0,0,7.8,24.9,30.9-3.1c21.6-28,30.9-32.6,29.3-49.7
	C454.4,342.7,449.6,302.3,434.2,291.5z"
  />
  <path
    id="_x32_"
    fill="#BDBDBD"
    d="M361.7,348.8l-97.3-43.5l-84.9,172.4c0,0-6.2,12.4,15.4,14c21.6,3.1,57.1,10.9,75.7-7.8
	C289.2,466.9,361.7,348.8,361.7,348.8z"
  />
  <path
    id="_x31_"
    fill="#BDBDBD"
    d="M264.4,303.8l-9.2-115l-210,14c0,0-12.4,1.6-10.8,24.9c1.6,31,4.6,65.2,4.6,65.2
	s-1.6,14,26.2,15.5C93.1,310,261.4,310,264.4,303.8z"
  />
</svg>
