<?xml version="1.0" encoding="utf-8" ?>
<!-- Generator: Adobe Illustrator 22.0.1, SVG Export Plug-In . SVG Version: 6.00 Build 0)  -->
<svg
  version="1.1"
  id="skl"
  xmlns="http://www.w3.org/2000/svg"
  xmlns:xlink="http://www.w3.org/1999/xlink"
  x="0px"
  y="0px"
  viewBox="0 0 512 512"
  enable-background="new 0 0 512 512"
  xml:space="preserve"
>
  <path
    id="_x31_"
    fill="#BDBDBD"
    d="M256,16C123.5,16,16,123.5,16,256s107.5,240,240,240s240-107.5,240-240S388.5,16,256,16z
	 M378.9,401.9h-254V110.6h254v32.9H157.8V369h221.1L378.9,401.9L378.9,401.9z M428.4,334.3c-11.5,8.6-26.9,13-46.4,13
	c-13.5,0-25.8-2.5-36.9-7.4s-19.6-11.7-25.4-20.3c-5.8-8.6-8.7-18.6-8.7-29.9h36.3c0,19.4,11.6,29.1,34.7,29.1
	c8.6,0,15.3-1.7,20.1-5.2c4.8-3.5,7.2-8.4,7.2-14.6c0-6.8-2.4-12.1-7.2-15.7c-4.8-3.6-13.5-7.5-26-11.6s-22.5-8.1-29.8-12
	c-19.9-10.8-29.9-25.3-29.9-43.5c-0.1-9.1,2.7-18,8-25.4s13-13.2,23-17.4s21.3-6.3,33.7-6.3c12.5,0,23.7,2.3,33.5,6.8
	s17.4,11,22.8,19.2c5.5,8.4,8.3,18.2,8.1,28.2h-36.2c0-8-2.5-14.3-7.6-18.8s-12.2-6.7-21.3-6.7c-8.8,0-15.7,1.9-20.6,5.6
	c-4.7,3.4-7.5,8.9-7.4,14.8c0,5.7,2.9,10.5,8.6,14.3s14.2,7.5,25.4,10.8c20.6,6.2,35.6,13.9,45,23c9.4,9.1,14.1,20.6,14.1,34.2
	C445.7,313.8,439.9,325.7,428.4,334.3L428.4,334.3z"
  />
</svg>
