<?xml version="1.0" encoding="utf-8"?>
<!-- Generator: Adobe Illustrator 22.0.1, SVG Export Plug-In . SVG Version: 6.00 Build 0)  -->
<svg version="1.1" id="mana" xmlns="http://www.w3.org/2000/svg" xmlns:xlink="http://www.w3.org/1999/xlink" x="0px" y="0px"
	 viewBox="0 0 512 512" enable-background="new 0 0 512 512" xml:space="preserve">
<circle id="_x31_0" fill="#BDBDBD" cx="256" cy="256" r="240"/>
<path id="_x39_" fill="#ADADAD" d="M186,172v180h150L186,172z"/>
<path id="_x38_" fill="#EDEDED" d="M36,352h150V172L36,352z"/>
<path id="_x37_" fill="#CDCDCD" d="M64,400c13.7,18.1,29.9,34.3,48,48h288c18.1-13.7,34.3-29.9,48-48H64z"/>
<path id="_x36_" fill="#BDBDBD" d="M112,448c85.3,64,202.7,64,288,0H112z"/>
<path id="_x35_" fill="#ADADAD" d="M338,268v132h110L338,268z"/>
<path id="_x34_" fill="#DDDDDD" d="M338,352H36c7.4,17,16.8,33.1,28,48h274.1v-48H338z"/>
<path id="_x33_" fill="#EDEDED" d="M228,400h110V268L228,400z"/>
<circle id="_x32_" fill="#DDDDDD" cx="338" cy="172" r="60"/>
<circle id="_x31_" fill="#DDDDDD" cx="186" cy="106" r="30"/>
</svg>
