<?xml version="1.0" encoding="utf-8" ?>
<!-- Generator: Adobe Illustrator 22.0.1, SVG Export Plug-In . SVG Version: 6.00 Build 0)  -->
<svg
  version="1.1"
  id="woo"
  xmlns="http://www.w3.org/2000/svg"
  xmlns:xlink="http://www.w3.org/1999/xlink"
  x="0px"
  y="0px"
  viewBox="0 0 512 512"
  enable-background="new 0 0 512 512"
  xml:space="preserve"
>
  <path
    id="_x31_"
    fill="#BDBDBD"
    d="M256,16C123.4,16,16,123.4,16,256s107.4,240,240,240s240-107.4,240-240S388.6,16,256,16z
	 M348.1,357.7c-1.1,3.5-3.3,6.6-6.3,8.8c-3,2.2-6.6,3.4-10.3,3.4h-28.3c-3.5,0-6.8-1-9.7-3c-2.9-1.9-5.1-4.7-6.4-7.9l-31.3-76.2
	L225,358.7c-1.3,3.2-3.6,6-6.5,7.9s-6.3,3-9.8,2.9h-28.8c-3.7,0-7.3-1.2-10.3-3.4c-3-2.2-5.2-5.3-6.3-8.8l-59.5-193.6h50.1l39.8,132
	l26.1-59.7c2.9-7.2,7.8-13.4,14.2-17.7c6.4-4.4,14-6.7,21.7-6.7c7.8,0,15.5,2.4,21.9,6.8c6.4,4.5,11.4,10.8,14.2,18.1l25.1,59.3
	l9.4-30h50L348.1,357.7z M384.1,240.4h-50.2l23.5-76.7h50.9L384.1,240.4z"
  />
</svg>
