<?xml version="1.0" encoding="utf-8" ?>
<!-- Generator: Adobe Illustrator 22.0.1, SVG Export Plug-In . SVG Version: 6.00 Build 0)  -->
<svg
  version="1.1"
  id="usdp"
  xmlns="http://www.w3.org/2000/svg"
  xmlns:xlink="http://www.w3.org/1999/xlink"
  x="0px"
  y="0px"
  viewBox="0 0 512 512"
  enable-background="new 0 0 512 512"
  xml:space="preserve"
>
  <path
    id="_x34_"
    fill="#BDBDBD"
    d="M211.2,176.7c-16.6,0-30,13.4-30,30s13.4,30,30,30h20.7v-60H211.2z"
  />
  <path
    id="_x33_"
    fill="#BDBDBD"
    d="M256,16C123.5,16,16,123.5,16,256s107.5,240,240,240s240-107.5,240-240S388.5,16,256,16z
	 M308.2,373.1h-29.6V431h-46.7v-57.9h-90.1v-37.5h90.1v-60.8h-30c-36.3-0.8-65.4-30-66.3-66.3c-0.8-37.4,28.8-68.4,66.3-69.3h30V81
	h46.7v58.3h90.1v37.4h-90.1v60h29.5h0.1l0,0c37.7,0,68.2,30.5,68.2,68.2C376.4,342.6,345.9,373.1,308.2,373.1z"
  />
  <rect
    id="_x32_"
    x="231.9"
    y="236.7"
    fill="#BDBDBD"
    width="46.7"
    height="38.1"
  />
  <path
    id="_x31_"
    fill="#BDBDBD"
    d="M298.9,335.6c16-0.5,28.9-13.4,29.4-29.4c0.6-16.8-12.6-30.9-29.4-31.4h-20.3v60.8H298.9z"
  />
</svg>
