<?xml version="1.0" encoding="utf-8" ?>
<!-- Generator: Adobe Illustrator 22.0.1, SVG Export Plug-In . SVG Version: 6.00 Build 0)  -->
<svg
  version="1.1"
  id="matic"
  xmlns="http://www.w3.org/2000/svg"
  xmlns:xlink="http://www.w3.org/1999/xlink"
  x="0px"
  y="0px"
  viewBox="0 0 512 512"
  enable-background="new 0 0 512 512"
  xml:space="preserve"
>
  <path
    id="_x31_"
    fill="#BDBDBD"
    d="M256,16C123.5,16,16,123.5,16,256s107.5,240,240,240s240-107.5,240-240S388.5,16,256,16z
	 M416,337.6c0,7.5-4.1,14.2-10,17.5l-67.7,39.3c-6.7,3.3-14.2,3.3-20.1,0l-67.7-39.3c-6.7-4.1-10-10.9-10-17.5V310l31.7-18.4v26.7
	c0,7.5,4.1,14.2,10,17.5l35.9,20.9c6.7,3.3,14.2,3.3,20.1,0l35.1-20.9c6.7-4.1,10-10.9,10-17.5v-41.8c0-7.5-4.1-14.2-10-17.5
	l-35.9-21c-6.7-3.3-14.2-3.3-20.1,0l-45.9,26.7l-31.7,18.4l-45.9,26.7c-6.7,3.3-14.2,3.3-20.1,0L106,270.6c-6.7-4.1-10-10.9-10-17.5
	v-78.5c0-6.7,3.3-13.4,10-16.7l68.5-40.1c6.7-3.3,14.2-3.3,20.1,0l66.9,39.3c6.7,4.1,10,10.9,10,17.5V203l-31.7,18.4v-27.5
	c0-7.5-4.1-14.2-10-17.5l-35.9-21.7c-6.7-3.3-14.2-3.3-20.1,0l-35.9,20.9c-6.7,4.1-10,10.9-10,17.5v41.8c0,7.5,4.1,14.2,10,17.5
	l35.9,21.7c6.7,3.3,14.2,3.3,20.1,0l45.9-27.6l31.7-17.5l46.8-27.6c6.7-3.3,14.2-3.3,20.1,0l67.7,39.3c6.7,4.1,10,10.9,10,17.5
	L416,337.6L416,337.6z"
  />
</svg>
